<?xml version="1.0" encoding="utf-8" standalone="no"?>
<!DOCTYPE svg PUBLIC "-//W3C//DTD SVG 1.1//EN"
  "http://www.w3.org/Graphics/SVG/1.1/DTD/svg11.dtd">
<svg xmlns:xlink="http://www.w3.org/1999/xlink" width="720pt" height="360pt" viewBox="0 0 720 360" xmlns="http://www.w3.org/2000/svg" version="1.1">
 <metadata>
  <rdf:RDF xmlns:dc="http://purl.org/dc/elements/1.1/" xmlns:cc="http://creativecommons.org/ns#" xmlns:rdf="http://www.w3.org/1999/02/22-rdf-syntax-ns#">
   <cc:Work>
    <dc:type rdf:resource="http://purl.org/dc/dcmitype/StillImage"/>
    <dc:date>2024-10-28T19:04:50.980422</dc:date>
    <dc:format>image/svg+xml</dc:format>
    <dc:creator>
     <cc:Agent>
      <dc:title>Matplotlib v3.8.4, https://matplotlib.org/</dc:title>
     </cc:Agent>
    </dc:creator>
   </cc:Work>
  </rdf:RDF>
 </metadata>
 <defs>
  <style type="text/css">*{stroke-linejoin: round; stroke-linecap: butt}</style>
 </defs>
 <g id="figure_1">
  <g id="patch_1">
   <path d="M 0 360 
L 720 360 
L 720 0 
L 0 0 
z
" style="fill: #ffffff"/>
  </g>
  <g id="axes_1">
   <g id="patch_2">
    <path d="M 121.88 314.44 
L 707.04 314.44 
L 707.04 29.76 
L 121.88 29.76 
z
" style="fill: #ffffff"/>
   </g>
   <g id="patch_3">
    <path d="M 121.88 301.5 
L 679.175238 301.5 
L 679.175238 291.043434 
L 121.88 291.043434 
z
" clip-path="url(#p53187d2123)" style="fill: #800080"/>
   </g>
   <g id="patch_4">
    <path d="M 121.88 288.429293 
L 198.518141 288.429293 
L 198.518141 277.972727 
L 121.88 277.972727 
z
" clip-path="url(#p53187d2123)" style="fill: #ffc0cb"/>
   </g>
   <g id="patch_5">
    <path d="M 121.88 275.358586 
L 176.750424 275.358586 
L 176.750424 264.90202 
L 121.88 264.90202 
z
" clip-path="url(#p53187d2123)" style="fill: #800080"/>
   </g>
   <g id="patch_6">
    <path d="M 121.88 262.287879 
L 176.394953 262.287879 
L 176.394953 251.831313 
L 121.88 251.831313 
z
" clip-path="url(#p53187d2123)" style="fill: #ffc0cb"/>
   </g>
   <g id="patch_7">
    <path d="M 121.88 249.217172 
L 158.58991 249.217172 
L 158.58991 238.760606 
L 121.88 238.760606 
z
" clip-path="url(#p53187d2123)" style="fill: #800080"/>
   </g>
   <g id="patch_8">
    <path d="M 121.88 236.146465 
L 153.957945 236.146465 
L 153.957945 225.689899 
L 121.88 225.689899 
z
" clip-path="url(#p53187d2123)" style="fill: #ffc0cb"/>
   </g>
   <g id="patch_9">
    <path d="M 121.88 223.075758 
L 148.956679 223.075758 
L 148.956679 212.619192 
L 121.88 212.619192 
z
" clip-path="url(#p53187d2123)" style="fill: #800080"/>
   </g>
   <g id="patch_10">
    <path d="M 121.88 210.005051 
L 148.257743 210.005051 
L 148.257743 199.548485 
L 121.88 199.548485 
z
" clip-path="url(#p53187d2123)" style="fill: #ffc0cb"/>
   </g>
   <g id="patch_11">
    <path d="M 121.88 196.934343 
L 147.640533 196.934343 
L 147.640533 186.477778 
L 121.88 186.477778 
z
" clip-path="url(#p53187d2123)" style="fill: #800080"/>
   </g>
   <g id="patch_12">
    <path d="M 121.88 183.863636 
L 147.356069 183.863636 
L 147.356069 173.407071 
L 121.88 173.407071 
z
" clip-path="url(#p53187d2123)" style="fill: #ffc0cb"/>
   </g>
   <g id="patch_13">
    <path d="M 121.88 170.792929 
L 145.930063 170.792929 
L 145.930063 160.336364 
L 121.88 160.336364 
z
" clip-path="url(#p53187d2123)" style="fill: #800080"/>
   </g>
   <g id="patch_14">
    <path d="M 121.88 157.722222 
L 145.714586 157.722222 
L 145.714586 147.265657 
L 121.88 147.265657 
z
" clip-path="url(#p53187d2123)" style="fill: #ffc0cb"/>
   </g>
   <g id="patch_15">
    <path d="M 121.88 144.651515 
L 145.018692 144.651515 
L 145.018692 134.194949 
L 121.88 134.194949 
z
" clip-path="url(#p53187d2123)" style="fill: #800080"/>
   </g>
   <g id="patch_16">
    <path d="M 121.88 131.580808 
L 142.259285 131.580808 
L 142.259285 121.124242 
L 121.88 121.124242 
z
" clip-path="url(#p53187d2123)" style="fill: #ffc0cb"/>
   </g>
   <g id="patch_17">
    <path d="M 121.88 118.510101 
L 128.524603 118.510101 
L 128.524603 108.053535 
L 121.88 108.053535 
z
" clip-path="url(#p53187d2123)" style="fill: #800080"/>
   </g>
   <g id="patch_18">
    <path d="M 121.88 105.439394 
L 128.40107 105.439394 
L 128.40107 94.982828 
L 121.88 94.982828 
z
" clip-path="url(#p53187d2123)" style="fill: #ffc0cb"/>
   </g>
   <g id="patch_19">
    <path d="M 121.88 92.368687 
L 128.170936 92.368687 
L 128.170936 81.912121 
L 121.88 81.912121 
z
" clip-path="url(#p53187d2123)" style="fill: #800080"/>
   </g>
   <g id="patch_20">
    <path d="M 121.88 79.29798 
L 128.102362 79.29798 
L 128.102362 68.841414 
L 121.88 68.841414 
z
" clip-path="url(#p53187d2123)" style="fill: #ffc0cb"/>
   </g>
   <g id="patch_21">
    <path d="M 121.88 66.227273 
L 127.708083 66.227273 
L 127.708083 55.770707 
L 121.88 55.770707 
z
" clip-path="url(#p53187d2123)" style="fill: #800080"/>
   </g>
   <g id="patch_22">
    <path d="M 121.88 53.156566 
L 126.263664 53.156566 
L 126.263664 42.7 
L 121.88 42.7 
z
" clip-path="url(#p53187d2123)" style="fill: #ffc0cb"/>
   </g>
   <g id="matplotlib.axis_1">
    <g id="xtick_1">
     <g id="line2d_1">
      <defs>
       <path id="m7bb1b9fdc7" d="M 0 0 
L 0 3.5 
" style="stroke: #000000; stroke-width: 0.8"/>
      </defs>
      <g>
       <use xlink:href="#m7bb1b9fdc7" x="121.88" y="314.44" style="stroke: #000000; stroke-width: 0.8"/>
      </g>
     </g>
     <g id="text_1">
      <!-- 0.0 -->
      <g transform="translate(112.338125 330.558125) scale(0.12 -0.12)">
       <defs>
        <path id="DejaVuSans-30" d="M 2034 4250 
Q 1547 4250 1301 3770 
Q 1056 3291 1056 2328 
Q 1056 1369 1301 889 
Q 1547 409 2034 409 
Q 2525 409 2770 889 
Q 3016 1369 3016 2328 
Q 3016 3291 2770 3770 
Q 2525 4250 2034 4250 
z
M 2034 4750 
Q 2819 4750 3233 4129 
Q 3647 3509 3647 2328 
Q 3647 1150 3233 529 
Q 2819 -91 2034 -91 
Q 1250 -91 836 529 
Q 422 1150 422 2328 
Q 422 3509 836 4129 
Q 1250 4750 2034 4750 
z
" transform="scale(0.015625)"/>
        <path id="DejaVuSans-2e" d="M 684 794 
L 1344 794 
L 1344 0 
L 684 0 
L 684 794 
z
" transform="scale(0.015625)"/>
       </defs>
       <use xlink:href="#DejaVuSans-30"/>
       <use xlink:href="#DejaVuSans-2e" x="63.623047"/>
       <use xlink:href="#DejaVuSans-30" x="95.410156"/>
      </g>
     </g>
    </g>
    <g id="xtick_2">
     <g id="line2d_2">
      <g>
       <use xlink:href="#m7bb1b9fdc7" x="226.289098" y="314.44" style="stroke: #000000; stroke-width: 0.8"/>
      </g>
     </g>
     <g id="text_2">
      <!-- 0.1 -->
      <g transform="translate(216.747223 330.558125) scale(0.12 -0.12)">
       <defs>
        <path id="DejaVuSans-31" d="M 794 531 
L 1825 531 
L 1825 4091 
L 703 3866 
L 703 4441 
L 1819 4666 
L 2450 4666 
L 2450 531 
L 3481 531 
L 3481 0 
L 794 0 
L 794 531 
z
" transform="scale(0.015625)"/>
       </defs>
       <use xlink:href="#DejaVuSans-30"/>
       <use xlink:href="#DejaVuSans-2e" x="63.623047"/>
       <use xlink:href="#DejaVuSans-31" x="95.410156"/>
      </g>
     </g>
    </g>
    <g id="xtick_3">
     <g id="line2d_3">
      <g>
       <use xlink:href="#m7bb1b9fdc7" x="330.698196" y="314.44" style="stroke: #000000; stroke-width: 0.8"/>
      </g>
     </g>
     <g id="text_3">
      <!-- 0.2 -->
      <g transform="translate(321.156321 330.558125) scale(0.12 -0.12)">
       <defs>
        <path id="DejaVuSans-32" d="M 1228 531 
L 3431 531 
L 3431 0 
L 469 0 
L 469 531 
Q 828 903 1448 1529 
Q 2069 2156 2228 2338 
Q 2531 2678 2651 2914 
Q 2772 3150 2772 3378 
Q 2772 3750 2511 3984 
Q 2250 4219 1831 4219 
Q 1534 4219 1204 4116 
Q 875 4013 500 3803 
L 500 4441 
Q 881 4594 1212 4672 
Q 1544 4750 1819 4750 
Q 2544 4750 2975 4387 
Q 3406 4025 3406 3419 
Q 3406 3131 3298 2873 
Q 3191 2616 2906 2266 
Q 2828 2175 2409 1742 
Q 1991 1309 1228 531 
z
" transform="scale(0.015625)"/>
       </defs>
       <use xlink:href="#DejaVuSans-30"/>
       <use xlink:href="#DejaVuSans-2e" x="63.623047"/>
       <use xlink:href="#DejaVuSans-32" x="95.410156"/>
      </g>
     </g>
    </g>
    <g id="xtick_4">
     <g id="line2d_4">
      <g>
       <use xlink:href="#m7bb1b9fdc7" x="435.107294" y="314.44" style="stroke: #000000; stroke-width: 0.8"/>
      </g>
     </g>
     <g id="text_4">
      <!-- 0.3 -->
      <g transform="translate(425.565419 330.558125) scale(0.12 -0.12)">
       <defs>
        <path id="DejaVuSans-33" d="M 2597 2516 
Q 3050 2419 3304 2112 
Q 3559 1806 3559 1356 
Q 3559 666 3084 287 
Q 2609 -91 1734 -91 
Q 1441 -91 1130 -33 
Q 819 25 488 141 
L 488 750 
Q 750 597 1062 519 
Q 1375 441 1716 441 
Q 2309 441 2620 675 
Q 2931 909 2931 1356 
Q 2931 1769 2642 2001 
Q 2353 2234 1838 2234 
L 1294 2234 
L 1294 2753 
L 1863 2753 
Q 2328 2753 2575 2939 
Q 2822 3125 2822 3475 
Q 2822 3834 2567 4026 
Q 2313 4219 1838 4219 
Q 1578 4219 1281 4162 
Q 984 4106 628 3988 
L 628 4550 
Q 988 4650 1302 4700 
Q 1616 4750 1894 4750 
Q 2613 4750 3031 4423 
Q 3450 4097 3450 3541 
Q 3450 3153 3228 2886 
Q 3006 2619 2597 2516 
z
" transform="scale(0.015625)"/>
       </defs>
       <use xlink:href="#DejaVuSans-30"/>
       <use xlink:href="#DejaVuSans-2e" x="63.623047"/>
       <use xlink:href="#DejaVuSans-33" x="95.410156"/>
      </g>
     </g>
    </g>
    <g id="xtick_5">
     <g id="line2d_5">
      <g>
       <use xlink:href="#m7bb1b9fdc7" x="539.516392" y="314.44" style="stroke: #000000; stroke-width: 0.8"/>
      </g>
     </g>
     <g id="text_5">
      <!-- 0.4 -->
      <g transform="translate(529.974517 330.558125) scale(0.12 -0.12)">
       <defs>
        <path id="DejaVuSans-34" d="M 2419 4116 
L 825 1625 
L 2419 1625 
L 2419 4116 
z
M 2253 4666 
L 3047 4666 
L 3047 1625 
L 3713 1625 
L 3713 1100 
L 3047 1100 
L 3047 0 
L 2419 0 
L 2419 1100 
L 313 1100 
L 313 1709 
L 2253 4666 
z
" transform="scale(0.015625)"/>
       </defs>
       <use xlink:href="#DejaVuSans-30"/>
       <use xlink:href="#DejaVuSans-2e" x="63.623047"/>
       <use xlink:href="#DejaVuSans-34" x="95.410156"/>
      </g>
     </g>
    </g>
    <g id="xtick_6">
     <g id="line2d_6">
      <g>
       <use xlink:href="#m7bb1b9fdc7" x="643.92549" y="314.44" style="stroke: #000000; stroke-width: 0.8"/>
      </g>
     </g>
     <g id="text_6">
      <!-- 0.5 -->
      <g transform="translate(634.383615 330.558125) scale(0.12 -0.12)">
       <defs>
        <path id="DejaVuSans-35" d="M 691 4666 
L 3169 4666 
L 3169 4134 
L 1269 4134 
L 1269 2991 
Q 1406 3038 1543 3061 
Q 1681 3084 1819 3084 
Q 2600 3084 3056 2656 
Q 3513 2228 3513 1497 
Q 3513 744 3044 326 
Q 2575 -91 1722 -91 
Q 1428 -91 1123 -41 
Q 819 9 494 109 
L 494 744 
Q 775 591 1075 516 
Q 1375 441 1709 441 
Q 2250 441 2565 725 
Q 2881 1009 2881 1497 
Q 2881 1984 2565 2268 
Q 2250 2553 1709 2553 
Q 1456 2553 1204 2497 
Q 953 2441 691 2322 
L 691 4666 
z
" transform="scale(0.015625)"/>
       </defs>
       <use xlink:href="#DejaVuSans-30"/>
       <use xlink:href="#DejaVuSans-2e" x="63.623047"/>
       <use xlink:href="#DejaVuSans-35" x="95.410156"/>
      </g>
     </g>
    </g>
    <g id="text_7">
     <!-- Importance -->
     <g transform="translate(380.07625 346.171875) scale(0.12 -0.12)">
      <defs>
       <path id="DejaVuSans-49" d="M 628 4666 
L 1259 4666 
L 1259 0 
L 628 0 
L 628 4666 
z
" transform="scale(0.015625)"/>
       <path id="DejaVuSans-6d" d="M 3328 2828 
Q 3544 3216 3844 3400 
Q 4144 3584 4550 3584 
Q 5097 3584 5394 3201 
Q 5691 2819 5691 2113 
L 5691 0 
L 5113 0 
L 5113 2094 
Q 5113 2597 4934 2840 
Q 4756 3084 4391 3084 
Q 3944 3084 3684 2787 
Q 3425 2491 3425 1978 
L 3425 0 
L 2847 0 
L 2847 2094 
Q 2847 2600 2669 2842 
Q 2491 3084 2119 3084 
Q 1678 3084 1418 2786 
Q 1159 2488 1159 1978 
L 1159 0 
L 581 0 
L 581 3500 
L 1159 3500 
L 1159 2956 
Q 1356 3278 1631 3431 
Q 1906 3584 2284 3584 
Q 2666 3584 2933 3390 
Q 3200 3197 3328 2828 
z
" transform="scale(0.015625)"/>
       <path id="DejaVuSans-70" d="M 1159 525 
L 1159 -1331 
L 581 -1331 
L 581 3500 
L 1159 3500 
L 1159 2969 
Q 1341 3281 1617 3432 
Q 1894 3584 2278 3584 
Q 2916 3584 3314 3078 
Q 3713 2572 3713 1747 
Q 3713 922 3314 415 
Q 2916 -91 2278 -91 
Q 1894 -91 1617 61 
Q 1341 213 1159 525 
z
M 3116 1747 
Q 3116 2381 2855 2742 
Q 2594 3103 2138 3103 
Q 1681 3103 1420 2742 
Q 1159 2381 1159 1747 
Q 1159 1113 1420 752 
Q 1681 391 2138 391 
Q 2594 391 2855 752 
Q 3116 1113 3116 1747 
z
" transform="scale(0.015625)"/>
       <path id="DejaVuSans-6f" d="M 1959 3097 
Q 1497 3097 1228 2736 
Q 959 2375 959 1747 
Q 959 1119 1226 758 
Q 1494 397 1959 397 
Q 2419 397 2687 759 
Q 2956 1122 2956 1747 
Q 2956 2369 2687 2733 
Q 2419 3097 1959 3097 
z
M 1959 3584 
Q 2709 3584 3137 3096 
Q 3566 2609 3566 1747 
Q 3566 888 3137 398 
Q 2709 -91 1959 -91 
Q 1206 -91 779 398 
Q 353 888 353 1747 
Q 353 2609 779 3096 
Q 1206 3584 1959 3584 
z
" transform="scale(0.015625)"/>
       <path id="DejaVuSans-72" d="M 2631 2963 
Q 2534 3019 2420 3045 
Q 2306 3072 2169 3072 
Q 1681 3072 1420 2755 
Q 1159 2438 1159 1844 
L 1159 0 
L 581 0 
L 581 3500 
L 1159 3500 
L 1159 2956 
Q 1341 3275 1631 3429 
Q 1922 3584 2338 3584 
Q 2397 3584 2469 3576 
Q 2541 3569 2628 3553 
L 2631 2963 
z
" transform="scale(0.015625)"/>
       <path id="DejaVuSans-74" d="M 1172 4494 
L 1172 3500 
L 2356 3500 
L 2356 3053 
L 1172 3053 
L 1172 1153 
Q 1172 725 1289 603 
Q 1406 481 1766 481 
L 2356 481 
L 2356 0 
L 1766 0 
Q 1100 0 847 248 
Q 594 497 594 1153 
L 594 3053 
L 172 3053 
L 172 3500 
L 594 3500 
L 594 4494 
L 1172 4494 
z
" transform="scale(0.015625)"/>
       <path id="DejaVuSans-61" d="M 2194 1759 
Q 1497 1759 1228 1600 
Q 959 1441 959 1056 
Q 959 750 1161 570 
Q 1363 391 1709 391 
Q 2188 391 2477 730 
Q 2766 1069 2766 1631 
L 2766 1759 
L 2194 1759 
z
M 3341 1997 
L 3341 0 
L 2766 0 
L 2766 531 
Q 2569 213 2275 61 
Q 1981 -91 1556 -91 
Q 1019 -91 701 211 
Q 384 513 384 1019 
Q 384 1609 779 1909 
Q 1175 2209 1959 2209 
L 2766 2209 
L 2766 2266 
Q 2766 2663 2505 2880 
Q 2244 3097 1772 3097 
Q 1472 3097 1187 3025 
Q 903 2953 641 2809 
L 641 3341 
Q 956 3463 1253 3523 
Q 1550 3584 1831 3584 
Q 2591 3584 2966 3190 
Q 3341 2797 3341 1997 
z
" transform="scale(0.015625)"/>
       <path id="DejaVuSans-6e" d="M 3513 2113 
L 3513 0 
L 2938 0 
L 2938 2094 
Q 2938 2591 2744 2837 
Q 2550 3084 2163 3084 
Q 1697 3084 1428 2787 
Q 1159 2491 1159 1978 
L 1159 0 
L 581 0 
L 581 3500 
L 1159 3500 
L 1159 2956 
Q 1366 3272 1645 3428 
Q 1925 3584 2291 3584 
Q 2894 3584 3203 3211 
Q 3513 2838 3513 2113 
z
" transform="scale(0.015625)"/>
       <path id="DejaVuSans-63" d="M 3122 3366 
L 3122 2828 
Q 2878 2963 2633 3030 
Q 2388 3097 2138 3097 
Q 1578 3097 1268 2742 
Q 959 2388 959 1747 
Q 959 1106 1268 751 
Q 1578 397 2138 397 
Q 2388 397 2633 464 
Q 2878 531 3122 666 
L 3122 134 
Q 2881 22 2623 -34 
Q 2366 -91 2075 -91 
Q 1284 -91 818 406 
Q 353 903 353 1747 
Q 353 2603 823 3093 
Q 1294 3584 2113 3584 
Q 2378 3584 2631 3529 
Q 2884 3475 3122 3366 
z
" transform="scale(0.015625)"/>
       <path id="DejaVuSans-65" d="M 3597 1894 
L 3597 1613 
L 953 1613 
Q 991 1019 1311 708 
Q 1631 397 2203 397 
Q 2534 397 2845 478 
Q 3156 559 3463 722 
L 3463 178 
Q 3153 47 2828 -22 
Q 2503 -91 2169 -91 
Q 1331 -91 842 396 
Q 353 884 353 1716 
Q 353 2575 817 3079 
Q 1281 3584 2069 3584 
Q 2775 3584 3186 3129 
Q 3597 2675 3597 1894 
z
M 3022 2063 
Q 3016 2534 2758 2815 
Q 2500 3097 2075 3097 
Q 1594 3097 1305 2825 
Q 1016 2553 972 2059 
L 3022 2063 
z
" transform="scale(0.015625)"/>
      </defs>
      <use xlink:href="#DejaVuSans-49"/>
      <use xlink:href="#DejaVuSans-6d" x="29.492188"/>
      <use xlink:href="#DejaVuSans-70" x="126.904297"/>
      <use xlink:href="#DejaVuSans-6f" x="190.380859"/>
      <use xlink:href="#DejaVuSans-72" x="251.5625"/>
      <use xlink:href="#DejaVuSans-74" x="292.675781"/>
      <use xlink:href="#DejaVuSans-61" x="331.884766"/>
      <use xlink:href="#DejaVuSans-6e" x="393.164062"/>
      <use xlink:href="#DejaVuSans-63" x="456.542969"/>
      <use xlink:href="#DejaVuSans-65" x="511.523438"/>
     </g>
    </g>
   </g>
   <g id="matplotlib.axis_2">
    <g id="ytick_1">
     <g id="line2d_7">
      <defs>
       <path id="m3df91bfc4c" d="M 0 0 
L -3.5 0 
" style="stroke: #000000; stroke-width: 0.8"/>
      </defs>
      <g>
       <use xlink:href="#m3df91bfc4c" x="121.88" y="296.271717" style="stroke: #000000; stroke-width: 0.8"/>
      </g>
     </g>
     <g id="text_8">
      <!-- ram -->
      <g transform="translate(90.904375 300.83078) scale(0.12 -0.12)">
       <use xlink:href="#DejaVuSans-72"/>
       <use xlink:href="#DejaVuSans-61" x="41.113281"/>
       <use xlink:href="#DejaVuSans-6d" x="102.392578"/>
      </g>
     </g>
    </g>
    <g id="ytick_2">
     <g id="line2d_8">
      <g>
       <use xlink:href="#m3df91bfc4c" x="121.88" y="283.20101" style="stroke: #000000; stroke-width: 0.8"/>
      </g>
     </g>
     <g id="text_9">
      <!-- battery_power -->
      <g transform="translate(27.98875 287.760073) scale(0.12 -0.12)">
       <defs>
        <path id="DejaVuSans-62" d="M 3116 1747 
Q 3116 2381 2855 2742 
Q 2594 3103 2138 3103 
Q 1681 3103 1420 2742 
Q 1159 2381 1159 1747 
Q 1159 1113 1420 752 
Q 1681 391 2138 391 
Q 2594 391 2855 752 
Q 3116 1113 3116 1747 
z
M 1159 2969 
Q 1341 3281 1617 3432 
Q 1894 3584 2278 3584 
Q 2916 3584 3314 3078 
Q 3713 2572 3713 1747 
Q 3713 922 3314 415 
Q 2916 -91 2278 -91 
Q 1894 -91 1617 61 
Q 1341 213 1159 525 
L 1159 0 
L 581 0 
L 581 4863 
L 1159 4863 
L 1159 2969 
z
" transform="scale(0.015625)"/>
        <path id="DejaVuSans-79" d="M 2059 -325 
Q 1816 -950 1584 -1140 
Q 1353 -1331 966 -1331 
L 506 -1331 
L 506 -850 
L 844 -850 
Q 1081 -850 1212 -737 
Q 1344 -625 1503 -206 
L 1606 56 
L 191 3500 
L 800 3500 
L 1894 763 
L 2988 3500 
L 3597 3500 
L 2059 -325 
z
" transform="scale(0.015625)"/>
        <path id="DejaVuSans-5f" d="M 3263 -1063 
L 3263 -1509 
L -63 -1509 
L -63 -1063 
L 3263 -1063 
z
" transform="scale(0.015625)"/>
        <path id="DejaVuSans-77" d="M 269 3500 
L 844 3500 
L 1563 769 
L 2278 3500 
L 2956 3500 
L 3675 769 
L 4391 3500 
L 4966 3500 
L 4050 0 
L 3372 0 
L 2619 2869 
L 1863 0 
L 1184 0 
L 269 3500 
z
" transform="scale(0.015625)"/>
       </defs>
       <use xlink:href="#DejaVuSans-62"/>
       <use xlink:href="#DejaVuSans-61" x="63.476562"/>
       <use xlink:href="#DejaVuSans-74" x="124.755859"/>
       <use xlink:href="#DejaVuSans-74" x="163.964844"/>
       <use xlink:href="#DejaVuSans-65" x="203.173828"/>
       <use xlink:href="#DejaVuSans-72" x="264.697266"/>
       <use xlink:href="#DejaVuSans-79" x="305.810547"/>
       <use xlink:href="#DejaVuSans-5f" x="364.990234"/>
       <use xlink:href="#DejaVuSans-70" x="414.990234"/>
       <use xlink:href="#DejaVuSans-6f" x="478.466797"/>
       <use xlink:href="#DejaVuSans-77" x="539.648438"/>
       <use xlink:href="#DejaVuSans-65" x="621.435547"/>
       <use xlink:href="#DejaVuSans-72" x="682.958984"/>
      </g>
     </g>
    </g>
    <g id="ytick_3">
     <g id="line2d_9">
      <g>
       <use xlink:href="#m3df91bfc4c" x="121.88" y="270.130303" style="stroke: #000000; stroke-width: 0.8"/>
      </g>
     </g>
     <g id="text_10">
      <!-- px_height -->
      <g transform="translate(55.909375 274.689366) scale(0.12 -0.12)">
       <defs>
        <path id="DejaVuSans-78" d="M 3513 3500 
L 2247 1797 
L 3578 0 
L 2900 0 
L 1881 1375 
L 863 0 
L 184 0 
L 1544 1831 
L 300 3500 
L 978 3500 
L 1906 2253 
L 2834 3500 
L 3513 3500 
z
" transform="scale(0.015625)"/>
        <path id="DejaVuSans-68" d="M 3513 2113 
L 3513 0 
L 2938 0 
L 2938 2094 
Q 2938 2591 2744 2837 
Q 2550 3084 2163 3084 
Q 1697 3084 1428 2787 
Q 1159 2491 1159 1978 
L 1159 0 
L 581 0 
L 581 4863 
L 1159 4863 
L 1159 2956 
Q 1366 3272 1645 3428 
Q 1925 3584 2291 3584 
Q 2894 3584 3203 3211 
Q 3513 2838 3513 2113 
z
" transform="scale(0.015625)"/>
        <path id="DejaVuSans-69" d="M 603 3500 
L 1178 3500 
L 1178 0 
L 603 0 
L 603 3500 
z
M 603 4863 
L 1178 4863 
L 1178 4134 
L 603 4134 
L 603 4863 
z
" transform="scale(0.015625)"/>
        <path id="DejaVuSans-67" d="M 2906 1791 
Q 2906 2416 2648 2759 
Q 2391 3103 1925 3103 
Q 1463 3103 1205 2759 
Q 947 2416 947 1791 
Q 947 1169 1205 825 
Q 1463 481 1925 481 
Q 2391 481 2648 825 
Q 2906 1169 2906 1791 
z
M 3481 434 
Q 3481 -459 3084 -895 
Q 2688 -1331 1869 -1331 
Q 1566 -1331 1297 -1286 
Q 1028 -1241 775 -1147 
L 775 -588 
Q 1028 -725 1275 -790 
Q 1522 -856 1778 -856 
Q 2344 -856 2625 -561 
Q 2906 -266 2906 331 
L 2906 616 
Q 2728 306 2450 153 
Q 2172 0 1784 0 
Q 1141 0 747 490 
Q 353 981 353 1791 
Q 353 2603 747 3093 
Q 1141 3584 1784 3584 
Q 2172 3584 2450 3431 
Q 2728 3278 2906 2969 
L 2906 3500 
L 3481 3500 
L 3481 434 
z
" transform="scale(0.015625)"/>
       </defs>
       <use xlink:href="#DejaVuSans-70"/>
       <use xlink:href="#DejaVuSans-78" x="63.476562"/>
       <use xlink:href="#DejaVuSans-5f" x="122.65625"/>
       <use xlink:href="#DejaVuSans-68" x="172.65625"/>
       <use xlink:href="#DejaVuSans-65" x="236.035156"/>
       <use xlink:href="#DejaVuSans-69" x="297.558594"/>
       <use xlink:href="#DejaVuSans-67" x="325.341797"/>
       <use xlink:href="#DejaVuSans-68" x="388.818359"/>
       <use xlink:href="#DejaVuSans-74" x="452.197266"/>
      </g>
     </g>
    </g>
    <g id="ytick_4">
     <g id="line2d_10">
      <g>
       <use xlink:href="#m3df91bfc4c" x="121.88" y="257.059596" style="stroke: #000000; stroke-width: 0.8"/>
      </g>
     </g>
     <g id="text_11">
      <!-- px_width -->
      <g transform="translate(61.084375 261.618658) scale(0.12 -0.12)">
       <defs>
        <path id="DejaVuSans-64" d="M 2906 2969 
L 2906 4863 
L 3481 4863 
L 3481 0 
L 2906 0 
L 2906 525 
Q 2725 213 2448 61 
Q 2172 -91 1784 -91 
Q 1150 -91 751 415 
Q 353 922 353 1747 
Q 353 2572 751 3078 
Q 1150 3584 1784 3584 
Q 2172 3584 2448 3432 
Q 2725 3281 2906 2969 
z
M 947 1747 
Q 947 1113 1208 752 
Q 1469 391 1925 391 
Q 2381 391 2643 752 
Q 2906 1113 2906 1747 
Q 2906 2381 2643 2742 
Q 2381 3103 1925 3103 
Q 1469 3103 1208 2742 
Q 947 2381 947 1747 
z
" transform="scale(0.015625)"/>
       </defs>
       <use xlink:href="#DejaVuSans-70"/>
       <use xlink:href="#DejaVuSans-78" x="63.476562"/>
       <use xlink:href="#DejaVuSans-5f" x="122.65625"/>
       <use xlink:href="#DejaVuSans-77" x="172.65625"/>
       <use xlink:href="#DejaVuSans-69" x="254.443359"/>
       <use xlink:href="#DejaVuSans-64" x="282.226562"/>
       <use xlink:href="#DejaVuSans-74" x="345.703125"/>
       <use xlink:href="#DejaVuSans-68" x="384.912109"/>
      </g>
     </g>
    </g>
    <g id="ytick_5">
     <g id="line2d_11">
      <g>
       <use xlink:href="#m3df91bfc4c" x="121.88" y="243.988889" style="stroke: #000000; stroke-width: 0.8"/>
      </g>
     </g>
     <g id="text_12">
      <!-- mobile_wt -->
      <g transform="translate(53.66125 248.547951) scale(0.12 -0.12)">
       <defs>
        <path id="DejaVuSans-6c" d="M 603 4863 
L 1178 4863 
L 1178 0 
L 603 0 
L 603 4863 
z
" transform="scale(0.015625)"/>
       </defs>
       <use xlink:href="#DejaVuSans-6d"/>
       <use xlink:href="#DejaVuSans-6f" x="97.412109"/>
       <use xlink:href="#DejaVuSans-62" x="158.59375"/>
       <use xlink:href="#DejaVuSans-69" x="222.070312"/>
       <use xlink:href="#DejaVuSans-6c" x="249.853516"/>
       <use xlink:href="#DejaVuSans-65" x="277.636719"/>
       <use xlink:href="#DejaVuSans-5f" x="339.160156"/>
       <use xlink:href="#DejaVuSans-77" x="389.160156"/>
       <use xlink:href="#DejaVuSans-74" x="470.947266"/>
      </g>
     </g>
    </g>
    <g id="ytick_6">
     <g id="line2d_12">
      <g>
       <use xlink:href="#m3df91bfc4c" x="121.88" y="230.918182" style="stroke: #000000; stroke-width: 0.8"/>
      </g>
     </g>
     <g id="text_13">
      <!-- int_memory -->
      <g transform="translate(43.0975 235.477244) scale(0.12 -0.12)">
       <use xlink:href="#DejaVuSans-69"/>
       <use xlink:href="#DejaVuSans-6e" x="27.783203"/>
       <use xlink:href="#DejaVuSans-74" x="91.162109"/>
       <use xlink:href="#DejaVuSans-5f" x="130.371094"/>
       <use xlink:href="#DejaVuSans-6d" x="180.371094"/>
       <use xlink:href="#DejaVuSans-65" x="277.783203"/>
       <use xlink:href="#DejaVuSans-6d" x="339.306641"/>
       <use xlink:href="#DejaVuSans-6f" x="436.71875"/>
       <use xlink:href="#DejaVuSans-72" x="497.900391"/>
       <use xlink:href="#DejaVuSans-79" x="539.013672"/>
      </g>
     </g>
    </g>
    <g id="ytick_7">
     <g id="line2d_13">
      <g>
       <use xlink:href="#m3df91bfc4c" x="121.88" y="217.847475" style="stroke: #000000; stroke-width: 0.8"/>
      </g>
     </g>
     <g id="text_14">
      <!-- talk_time -->
      <g transform="translate(59.42875 222.406537) scale(0.12 -0.12)">
       <defs>
        <path id="DejaVuSans-6b" d="M 581 4863 
L 1159 4863 
L 1159 1991 
L 2875 3500 
L 3609 3500 
L 1753 1863 
L 3688 0 
L 2938 0 
L 1159 1709 
L 1159 0 
L 581 0 
L 581 4863 
z
" transform="scale(0.015625)"/>
       </defs>
       <use xlink:href="#DejaVuSans-74"/>
       <use xlink:href="#DejaVuSans-61" x="39.208984"/>
       <use xlink:href="#DejaVuSans-6c" x="100.488281"/>
       <use xlink:href="#DejaVuSans-6b" x="128.271484"/>
       <use xlink:href="#DejaVuSans-5f" x="186.181641"/>
       <use xlink:href="#DejaVuSans-74" x="236.181641"/>
       <use xlink:href="#DejaVuSans-69" x="275.390625"/>
       <use xlink:href="#DejaVuSans-6d" x="303.173828"/>
       <use xlink:href="#DejaVuSans-65" x="400.585938"/>
      </g>
     </g>
    </g>
    <g id="ytick_8">
     <g id="line2d_14">
      <g>
       <use xlink:href="#m3df91bfc4c" x="121.88" y="204.776768" style="stroke: #000000; stroke-width: 0.8"/>
      </g>
     </g>
     <g id="text_15">
      <!-- sc_w -->
      <g transform="translate(86.216875 209.168955) scale(0.12 -0.12)">
       <defs>
        <path id="DejaVuSans-73" d="M 2834 3397 
L 2834 2853 
Q 2591 2978 2328 3040 
Q 2066 3103 1784 3103 
Q 1356 3103 1142 2972 
Q 928 2841 928 2578 
Q 928 2378 1081 2264 
Q 1234 2150 1697 2047 
L 1894 2003 
Q 2506 1872 2764 1633 
Q 3022 1394 3022 966 
Q 3022 478 2636 193 
Q 2250 -91 1575 -91 
Q 1294 -91 989 -36 
Q 684 19 347 128 
L 347 722 
Q 666 556 975 473 
Q 1284 391 1588 391 
Q 1994 391 2212 530 
Q 2431 669 2431 922 
Q 2431 1156 2273 1281 
Q 2116 1406 1581 1522 
L 1381 1569 
Q 847 1681 609 1914 
Q 372 2147 372 2553 
Q 372 3047 722 3315 
Q 1072 3584 1716 3584 
Q 2034 3584 2315 3537 
Q 2597 3491 2834 3397 
z
" transform="scale(0.015625)"/>
       </defs>
       <use xlink:href="#DejaVuSans-73"/>
       <use xlink:href="#DejaVuSans-63" x="52.099609"/>
       <use xlink:href="#DejaVuSans-5f" x="107.080078"/>
       <use xlink:href="#DejaVuSans-77" x="157.080078"/>
      </g>
     </g>
    </g>
    <g id="ytick_9">
     <g id="line2d_15">
      <g>
       <use xlink:href="#m3df91bfc4c" x="121.88" y="191.706061" style="stroke: #000000; stroke-width: 0.8"/>
      </g>
     </g>
     <g id="text_16">
      <!-- pc -->
      <g transform="translate(100.66375 196.265123) scale(0.12 -0.12)">
       <use xlink:href="#DejaVuSans-70"/>
       <use xlink:href="#DejaVuSans-63" x="63.476562"/>
      </g>
     </g>
    </g>
    <g id="ytick_10">
     <g id="line2d_16">
      <g>
       <use xlink:href="#m3df91bfc4c" x="121.88" y="178.635354" style="stroke: #000000; stroke-width: 0.8"/>
      </g>
     </g>
     <g id="text_17">
      <!-- clock_speed -->
      <g transform="translate(41.80375 183.194416) scale(0.12 -0.12)">
       <use xlink:href="#DejaVuSans-63"/>
       <use xlink:href="#DejaVuSans-6c" x="54.980469"/>
       <use xlink:href="#DejaVuSans-6f" x="82.763672"/>
       <use xlink:href="#DejaVuSans-63" x="143.945312"/>
       <use xlink:href="#DejaVuSans-6b" x="198.925781"/>
       <use xlink:href="#DejaVuSans-5f" x="256.835938"/>
       <use xlink:href="#DejaVuSans-73" x="306.835938"/>
       <use xlink:href="#DejaVuSans-70" x="358.935547"/>
       <use xlink:href="#DejaVuSans-65" x="422.412109"/>
       <use xlink:href="#DejaVuSans-65" x="483.935547"/>
       <use xlink:href="#DejaVuSans-64" x="545.458984"/>
      </g>
     </g>
    </g>
    <g id="ytick_11">
     <g id="line2d_17">
      <g>
       <use xlink:href="#m3df91bfc4c" x="121.88" y="165.564646" style="stroke: #000000; stroke-width: 0.8"/>
      </g>
     </g>
     <g id="text_18">
      <!-- sc_h -->
      <g transform="translate(88.425625 170.123709) scale(0.12 -0.12)">
       <use xlink:href="#DejaVuSans-73"/>
       <use xlink:href="#DejaVuSans-63" x="52.099609"/>
       <use xlink:href="#DejaVuSans-5f" x="107.080078"/>
       <use xlink:href="#DejaVuSans-68" x="157.080078"/>
      </g>
     </g>
    </g>
    <g id="ytick_12">
     <g id="line2d_18">
      <g>
       <use xlink:href="#m3df91bfc4c" x="121.88" y="152.493939" style="stroke: #000000; stroke-width: 0.8"/>
      </g>
     </g>
     <g id="text_19">
      <!-- m_dep -->
      <g transform="translate(74.57125 157.053002) scale(0.12 -0.12)">
       <use xlink:href="#DejaVuSans-6d"/>
       <use xlink:href="#DejaVuSans-5f" x="97.412109"/>
       <use xlink:href="#DejaVuSans-64" x="147.412109"/>
       <use xlink:href="#DejaVuSans-65" x="210.888672"/>
       <use xlink:href="#DejaVuSans-70" x="272.412109"/>
      </g>
     </g>
    </g>
    <g id="ytick_13">
     <g id="line2d_19">
      <g>
       <use xlink:href="#m3df91bfc4c" x="121.88" y="139.423232" style="stroke: #000000; stroke-width: 0.8"/>
      </g>
     </g>
     <g id="text_20">
      <!-- fc -->
      <g transform="translate(104.0575 143.982295) scale(0.12 -0.12)">
       <defs>
        <path id="DejaVuSans-66" d="M 2375 4863 
L 2375 4384 
L 1825 4384 
Q 1516 4384 1395 4259 
Q 1275 4134 1275 3809 
L 1275 3500 
L 2222 3500 
L 2222 3053 
L 1275 3053 
L 1275 0 
L 697 0 
L 697 3053 
L 147 3053 
L 147 3500 
L 697 3500 
L 697 3744 
Q 697 4328 969 4595 
Q 1241 4863 1831 4863 
L 2375 4863 
z
" transform="scale(0.015625)"/>
       </defs>
       <use xlink:href="#DejaVuSans-66"/>
       <use xlink:href="#DejaVuSans-63" x="35.205078"/>
      </g>
     </g>
    </g>
    <g id="ytick_14">
     <g id="line2d_20">
      <g>
       <use xlink:href="#m3df91bfc4c" x="121.88" y="126.352525" style="stroke: #000000; stroke-width: 0.8"/>
      </g>
     </g>
     <g id="text_21">
      <!-- n_cores -->
      <g transform="translate(69.03625 130.744713) scale(0.12 -0.12)">
       <use xlink:href="#DejaVuSans-6e"/>
       <use xlink:href="#DejaVuSans-5f" x="63.378906"/>
       <use xlink:href="#DejaVuSans-63" x="113.378906"/>
       <use xlink:href="#DejaVuSans-6f" x="168.359375"/>
       <use xlink:href="#DejaVuSans-72" x="229.541016"/>
       <use xlink:href="#DejaVuSans-65" x="268.404297"/>
       <use xlink:href="#DejaVuSans-73" x="329.927734"/>
      </g>
     </g>
    </g>
    <g id="ytick_15">
     <g id="line2d_21">
      <g>
       <use xlink:href="#m3df91bfc4c" x="121.88" y="113.281818" style="stroke: #000000; stroke-width: 0.8"/>
      </g>
     </g>
     <g id="text_22">
      <!-- touch_screen -->
      <g transform="translate(35.14 117.840881) scale(0.12 -0.12)">
       <defs>
        <path id="DejaVuSans-75" d="M 544 1381 
L 544 3500 
L 1119 3500 
L 1119 1403 
Q 1119 906 1312 657 
Q 1506 409 1894 409 
Q 2359 409 2629 706 
Q 2900 1003 2900 1516 
L 2900 3500 
L 3475 3500 
L 3475 0 
L 2900 0 
L 2900 538 
Q 2691 219 2414 64 
Q 2138 -91 1772 -91 
Q 1169 -91 856 284 
Q 544 659 544 1381 
z
M 1991 3584 
L 1991 3584 
z
" transform="scale(0.015625)"/>
       </defs>
       <use xlink:href="#DejaVuSans-74"/>
       <use xlink:href="#DejaVuSans-6f" x="39.208984"/>
       <use xlink:href="#DejaVuSans-75" x="100.390625"/>
       <use xlink:href="#DejaVuSans-63" x="163.769531"/>
       <use xlink:href="#DejaVuSans-68" x="218.75"/>
       <use xlink:href="#DejaVuSans-5f" x="282.128906"/>
       <use xlink:href="#DejaVuSans-73" x="332.128906"/>
       <use xlink:href="#DejaVuSans-63" x="384.228516"/>
       <use xlink:href="#DejaVuSans-72" x="439.208984"/>
       <use xlink:href="#DejaVuSans-65" x="478.072266"/>
       <use xlink:href="#DejaVuSans-65" x="539.595703"/>
       <use xlink:href="#DejaVuSans-6e" x="601.119141"/>
      </g>
     </g>
    </g>
    <g id="ytick_16">
     <g id="line2d_22">
      <g>
       <use xlink:href="#m3df91bfc4c" x="121.88" y="100.211111" style="stroke: #000000; stroke-width: 0.8"/>
      </g>
     </g>
     <g id="text_23">
      <!-- dual_sim -->
      <g transform="translate(61.695625 104.770174) scale(0.12 -0.12)">
       <use xlink:href="#DejaVuSans-64"/>
       <use xlink:href="#DejaVuSans-75" x="63.476562"/>
       <use xlink:href="#DejaVuSans-61" x="126.855469"/>
       <use xlink:href="#DejaVuSans-6c" x="188.134766"/>
       <use xlink:href="#DejaVuSans-5f" x="215.917969"/>
       <use xlink:href="#DejaVuSans-73" x="265.917969"/>
       <use xlink:href="#DejaVuSans-69" x="318.017578"/>
       <use xlink:href="#DejaVuSans-6d" x="345.800781"/>
      </g>
     </g>
    </g>
    <g id="ytick_17">
     <g id="line2d_23">
      <g>
       <use xlink:href="#m3df91bfc4c" x="121.88" y="87.140404" style="stroke: #000000; stroke-width: 0.8"/>
      </g>
     </g>
     <g id="text_24">
      <!-- blue -->
      <g transform="translate(88.939375 91.699467) scale(0.12 -0.12)">
       <use xlink:href="#DejaVuSans-62"/>
       <use xlink:href="#DejaVuSans-6c" x="63.476562"/>
       <use xlink:href="#DejaVuSans-75" x="91.259766"/>
       <use xlink:href="#DejaVuSans-65" x="154.638672"/>
      </g>
     </g>
    </g>
    <g id="ytick_18">
     <g id="line2d_24">
      <g>
       <use xlink:href="#m3df91bfc4c" x="121.88" y="74.069697" style="stroke: #000000; stroke-width: 0.8"/>
      </g>
     </g>
     <g id="text_25">
      <!-- four_g -->
      <g transform="translate(77.156875 78.628759) scale(0.12 -0.12)">
       <use xlink:href="#DejaVuSans-66"/>
       <use xlink:href="#DejaVuSans-6f" x="35.205078"/>
       <use xlink:href="#DejaVuSans-75" x="96.386719"/>
       <use xlink:href="#DejaVuSans-72" x="159.765625"/>
       <use xlink:href="#DejaVuSans-5f" x="200.878906"/>
       <use xlink:href="#DejaVuSans-67" x="250.878906"/>
      </g>
     </g>
    </g>
    <g id="ytick_19">
     <g id="line2d_25">
      <g>
       <use xlink:href="#m3df91bfc4c" x="121.88" y="60.99899" style="stroke: #000000; stroke-width: 0.8"/>
      </g>
     </g>
     <g id="text_26">
      <!-- wifi -->
      <g transform="translate(94.174375 65.558052) scale(0.12 -0.12)">
       <use xlink:href="#DejaVuSans-77"/>
       <use xlink:href="#DejaVuSans-69" x="81.787109"/>
       <use xlink:href="#DejaVuSans-66" x="109.570312"/>
       <use xlink:href="#DejaVuSans-69" x="144.775391"/>
      </g>
     </g>
    </g>
    <g id="ytick_20">
     <g id="line2d_26">
      <g>
       <use xlink:href="#m3df91bfc4c" x="121.88" y="47.928283" style="stroke: #000000; stroke-width: 0.8"/>
      </g>
     </g>
     <g id="text_27">
      <!-- three_g -->
      <g transform="translate(69.521875 52.487345) scale(0.12 -0.12)">
       <use xlink:href="#DejaVuSans-74"/>
       <use xlink:href="#DejaVuSans-68" x="39.208984"/>
       <use xlink:href="#DejaVuSans-72" x="102.587891"/>
       <use xlink:href="#DejaVuSans-65" x="141.451172"/>
       <use xlink:href="#DejaVuSans-65" x="202.974609"/>
       <use xlink:href="#DejaVuSans-5f" x="264.498047"/>
       <use xlink:href="#DejaVuSans-67" x="314.498047"/>
      </g>
     </g>
    </g>
    <g id="text_28">
     <!-- Input Feature -->
     <g transform="translate(21.493125 212.210938) rotate(-90) scale(0.12 -0.12)">
      <defs>
       <path id="DejaVuSans-20" transform="scale(0.015625)"/>
       <path id="DejaVuSans-46" d="M 628 4666 
L 3309 4666 
L 3309 4134 
L 1259 4134 
L 1259 2759 
L 3109 2759 
L 3109 2228 
L 1259 2228 
L 1259 0 
L 628 0 
L 628 4666 
z
" transform="scale(0.015625)"/>
      </defs>
      <use xlink:href="#DejaVuSans-49"/>
      <use xlink:href="#DejaVuSans-6e" x="29.492188"/>
      <use xlink:href="#DejaVuSans-70" x="92.871094"/>
      <use xlink:href="#DejaVuSans-75" x="156.347656"/>
      <use xlink:href="#DejaVuSans-74" x="219.726562"/>
      <use xlink:href="#DejaVuSans-20" x="258.935547"/>
      <use xlink:href="#DejaVuSans-46" x="290.722656"/>
      <use xlink:href="#DejaVuSans-65" x="342.742188"/>
      <use xlink:href="#DejaVuSans-61" x="404.265625"/>
      <use xlink:href="#DejaVuSans-74" x="465.544922"/>
      <use xlink:href="#DejaVuSans-75" x="504.753906"/>
      <use xlink:href="#DejaVuSans-72" x="568.132812"/>
      <use xlink:href="#DejaVuSans-65" x="606.996094"/>
     </g>
    </g>
   </g>
   <g id="patch_23">
    <path d="M 121.88 314.44 
L 121.88 29.76 
" style="fill: none; stroke: #000000; stroke-width: 0.8; stroke-linejoin: miter; stroke-linecap: square"/>
   </g>
   <g id="patch_24">
    <path d="M 707.04 314.44 
L 707.04 29.76 
" style="fill: none; stroke: #000000; stroke-width: 0.8; stroke-linejoin: miter; stroke-linecap: square"/>
   </g>
   <g id="patch_25">
    <path d="M 121.88 314.44 
L 707.04 314.44 
" style="fill: none; stroke: #000000; stroke-width: 0.8; stroke-linejoin: miter; stroke-linecap: square"/>
   </g>
   <g id="patch_26">
    <path d="M 121.88 29.76 
L 707.04 29.76 
" style="fill: none; stroke: #000000; stroke-width: 0.8; stroke-linejoin: miter; stroke-linecap: square"/>
   </g>
   <g id="text_29">
    <!-- Which features are the most important for species prediction? -->
    <g transform="translate(190.455625 23.76) scale(0.144 -0.144)">
     <defs>
      <path id="DejaVuSans-57" d="M 213 4666 
L 850 4666 
L 1831 722 
L 2809 4666 
L 3519 4666 
L 4500 722 
L 5478 4666 
L 6119 4666 
L 4947 0 
L 4153 0 
L 3169 4050 
L 2175 0 
L 1381 0 
L 213 4666 
z
" transform="scale(0.015625)"/>
      <path id="DejaVuSans-3f" d="M 1222 794 
L 1856 794 
L 1856 0 
L 1222 0 
L 1222 794 
z
M 1838 1253 
L 1241 1253 
L 1241 1734 
Q 1241 2050 1328 2253 
Q 1416 2456 1697 2725 
L 1978 3003 
Q 2156 3169 2236 3316 
Q 2316 3463 2316 3616 
Q 2316 3894 2111 4066 
Q 1906 4238 1569 4238 
Q 1322 4238 1042 4128 
Q 763 4019 459 3809 
L 459 4397 
Q 753 4575 1054 4662 
Q 1356 4750 1678 4750 
Q 2253 4750 2601 4447 
Q 2950 4144 2950 3647 
Q 2950 3409 2837 3195 
Q 2725 2981 2444 2713 
L 2169 2444 
Q 2022 2297 1961 2214 
Q 1900 2131 1875 2053 
Q 1856 1988 1847 1894 
Q 1838 1800 1838 1638 
L 1838 1253 
z
" transform="scale(0.015625)"/>
     </defs>
     <use xlink:href="#DejaVuSans-57"/>
     <use xlink:href="#DejaVuSans-68" x="98.876953"/>
     <use xlink:href="#DejaVuSans-69" x="162.255859"/>
     <use xlink:href="#DejaVuSans-63" x="190.039062"/>
     <use xlink:href="#DejaVuSans-68" x="245.019531"/>
     <use xlink:href="#DejaVuSans-20" x="308.398438"/>
     <use xlink:href="#DejaVuSans-66" x="340.185547"/>
     <use xlink:href="#DejaVuSans-65" x="375.390625"/>
     <use xlink:href="#DejaVuSans-61" x="436.914062"/>
     <use xlink:href="#DejaVuSans-74" x="498.193359"/>
     <use xlink:href="#DejaVuSans-75" x="537.402344"/>
     <use xlink:href="#DejaVuSans-72" x="600.78125"/>
     <use xlink:href="#DejaVuSans-65" x="639.644531"/>
     <use xlink:href="#DejaVuSans-73" x="701.167969"/>
     <use xlink:href="#DejaVuSans-20" x="753.267578"/>
     <use xlink:href="#DejaVuSans-61" x="785.054688"/>
     <use xlink:href="#DejaVuSans-72" x="846.333984"/>
     <use xlink:href="#DejaVuSans-65" x="885.197266"/>
     <use xlink:href="#DejaVuSans-20" x="946.720703"/>
     <use xlink:href="#DejaVuSans-74" x="978.507812"/>
     <use xlink:href="#DejaVuSans-68" x="1017.716797"/>
     <use xlink:href="#DejaVuSans-65" x="1081.095703"/>
     <use xlink:href="#DejaVuSans-20" x="1142.619141"/>
     <use xlink:href="#DejaVuSans-6d" x="1174.40625"/>
     <use xlink:href="#DejaVuSans-6f" x="1271.818359"/>
     <use xlink:href="#DejaVuSans-73" x="1333"/>
     <use xlink:href="#DejaVuSans-74" x="1385.099609"/>
     <use xlink:href="#DejaVuSans-20" x="1424.308594"/>
     <use xlink:href="#DejaVuSans-69" x="1456.095703"/>
     <use xlink:href="#DejaVuSans-6d" x="1483.878906"/>
     <use xlink:href="#DejaVuSans-70" x="1581.291016"/>
     <use xlink:href="#DejaVuSans-6f" x="1644.767578"/>
     <use xlink:href="#DejaVuSans-72" x="1705.949219"/>
     <use xlink:href="#DejaVuSans-74" x="1747.0625"/>
     <use xlink:href="#DejaVuSans-61" x="1786.271484"/>
     <use xlink:href="#DejaVuSans-6e" x="1847.550781"/>
     <use xlink:href="#DejaVuSans-74" x="1910.929688"/>
     <use xlink:href="#DejaVuSans-20" x="1950.138672"/>
     <use xlink:href="#DejaVuSans-66" x="1981.925781"/>
     <use xlink:href="#DejaVuSans-6f" x="2017.130859"/>
     <use xlink:href="#DejaVuSans-72" x="2078.3125"/>
     <use xlink:href="#DejaVuSans-20" x="2119.425781"/>
     <use xlink:href="#DejaVuSans-73" x="2151.212891"/>
     <use xlink:href="#DejaVuSans-70" x="2203.3125"/>
     <use xlink:href="#DejaVuSans-65" x="2266.789062"/>
     <use xlink:href="#DejaVuSans-63" x="2328.3125"/>
     <use xlink:href="#DejaVuSans-69" x="2383.292969"/>
     <use xlink:href="#DejaVuSans-65" x="2411.076172"/>
     <use xlink:href="#DejaVuSans-73" x="2472.599609"/>
     <use xlink:href="#DejaVuSans-20" x="2524.699219"/>
     <use xlink:href="#DejaVuSans-70" x="2556.486328"/>
     <use xlink:href="#DejaVuSans-72" x="2619.962891"/>
     <use xlink:href="#DejaVuSans-65" x="2658.826172"/>
     <use xlink:href="#DejaVuSans-64" x="2720.349609"/>
     <use xlink:href="#DejaVuSans-69" x="2783.826172"/>
     <use xlink:href="#DejaVuSans-63" x="2811.609375"/>
     <use xlink:href="#DejaVuSans-74" x="2866.589844"/>
     <use xlink:href="#DejaVuSans-69" x="2905.798828"/>
     <use xlink:href="#DejaVuSans-6f" x="2933.582031"/>
     <use xlink:href="#DejaVuSans-6e" x="2994.763672"/>
     <use xlink:href="#DejaVuSans-3f" x="3058.142578"/>
    </g>
   </g>
  </g>
 </g>
 <defs>
  <clipPath id="p53187d2123">
   <rect x="121.88" y="29.76" width="585.16" height="284.68"/>
  </clipPath>
 </defs>
</svg>
